<?xml version="1.0" standalone="no"?>
<!DOCTYPE svg PUBLIC "-//W3C//DTD SVG 20010904//EN"
 "http://www.w3.org/TR/2001/REC-SVG-20010904/DTD/svg10.dtd">
<svg version="1.0" xmlns="http://www.w3.org/2000/svg"
 width="512.000000pt" height="512.000000pt" viewBox="0 0 512.000000 512.000000"
 preserveAspectRatio="xMidYMid meet">
<metadata>
Created by potrace 1.14, written by Peter Selinger 2001-2017
</metadata>
<g transform="translate(0.000000,512.000000) scale(0.100000,-0.100000)"
fill="#000000" stroke="none">
<path d="M2369 5116 c-2 -2 -38 -7 -78 -10 -41 -4 -78 -9 -81 -11 -3 -2 -33
-7 -65 -10 -117 -14 -472 -111 -499 -136 -6 -5 -16 -9 -23 -9 -32 0 -283 -125
-415 -207 -446 -275 -805 -698 -1013 -1193 -54 -129 -126 -360 -141 -457 -5
-26 -9 -50 -9 -53 -28 -112 -40 -252 -40 -480 1 -184 4 -241 20 -345 3 -16 7
-43 9 -60 22 -148 82 -365 146 -525 38 -96 127 -283 158 -332 9 -15 34 -56 56
-92 42 -71 154 -223 226 -306 212 -248 492 -466 789 -615 116 -58 334 -148
391 -160 3 -1 25 -7 50 -14 25 -7 52 -15 60 -17 34 -8 181 -42 185 -43 3 0 20
-2 38 -5 155 -26 220 -30 422 -31 226 0 311 8 505 46 58 11 115 23 128 25 46
9 320 103 387 134 232 104 402 208 600 366 126 100 217 190 361 356 238 275
468 756 529 1107 3 19 7 37 9 40 3 5 9 42 22 131 20 149 27 480 11 610 -44
376 -141 679 -322 1005 -58 105 -188 295 -240 351 -5 6 -30 35 -55 65 -240
285 -590 533 -985 699 -145 61 -419 133 -595 156 -25 3 -56 8 -70 10 -28 6
-466 15 -471 10z"/>
</g>
</svg>
